<svg width="23" height="17" viewBox="0 0 23 17" fill="none" xmlns="http://www.w3.org/2000/svg">
<mask id="path-1-inside-1_95_57" fill="white">
<path d="M17.2526 8.49353C17.9864 8.79489 18.7575 8.86997 19.4897 8.7513C20.8719 8.5277 22.1124 7.61284 22.6839 6.22495C23.1077 5.19762 23.1053 4.06616 22.6772 3.0399C22.2493 2.01365 21.4477 1.21557 20.4196 0.79312C20.1051 0.665578 19.7644 0.574361 19.4057 0.524313L18.8851 0.450317L19.3059 0.765943C20.728 1.83229 21.2494 3.72093 20.5741 5.3588C19.8984 6.99666 18.2005 7.96937 16.4429 7.72908L15.9268 7.65751L16.3431 7.97072C16.6351 8.19055 16.9415 8.36652 17.2526 8.49353ZM20.8235 5.46158C21.4784 3.87431 21.0821 2.06666 19.8704 0.893754C20.0246 0.935192 20.1737 0.984702 20.3168 1.04282C21.2788 1.43863 22.0279 2.18424 22.428 3.1435C22.8292 4.10356 22.8305 5.16156 22.4344 6.12243C21.6159 8.10498 19.3395 9.05805 17.3556 8.2441C17.2125 8.1849 17.0699 8.11602 16.9297 8.03502C18.6235 8.05467 20.1699 7.04994 20.8235 5.46158Z"/>
</mask>
<path d="M17.2526 8.49353L17.6325 7.5685L17.6306 7.56773L17.2526 8.49353ZM19.4897 8.7513L19.33 7.76414L19.3297 7.76418L19.4897 8.7513ZM22.6839 6.22495L21.7594 5.8436L21.7592 5.84418L22.6839 6.22495ZM22.6772 3.0399L21.7541 3.42469L21.7542 3.4249L22.6772 3.0399ZM20.4196 0.79312L20.7997 -0.131854L20.7954 -0.133597L20.4196 0.79312ZM19.4057 0.524313L19.265 1.51437L19.2675 1.51472L19.4057 0.524313ZM18.8851 0.450317L19.0258 -0.539734L18.2851 1.25032L18.8851 0.450317ZM19.3059 0.765943L18.7059 1.56594L18.706 1.566L19.3059 0.765943ZM20.5741 5.3588L21.4985 5.74014L21.4985 5.74001L20.5741 5.3588ZM16.4429 7.72908L16.3056 8.71961L16.3075 8.71987L16.4429 7.72908ZM15.9268 7.65751L16.0642 6.66699L12.2428 6.13702L15.3256 8.45658L15.9268 7.65751ZM16.3431 7.97072L16.9446 7.17187L16.9443 7.17165L16.3431 7.97072ZM20.8235 5.46158L19.8991 5.08016L19.8987 5.08105L20.8235 5.46158ZM19.8704 0.893754L20.13 -0.0719752L16.3992 -1.07465L19.1749 1.61226L19.8704 0.893754ZM20.3168 1.04282L20.6973 0.118037L20.693 0.11628L20.3168 1.04282ZM22.428 3.1435L21.5051 3.52846L21.5053 3.52907L22.428 3.1435ZM22.4344 6.12243L23.3588 6.50405L23.359 6.50354L22.4344 6.12243ZM17.3556 8.2441L16.9735 9.1682L16.9761 9.16926L17.3556 8.2441ZM16.9297 8.03502L16.9413 7.03509L13.1233 6.99082L16.4294 8.9009L16.9297 8.03502ZM16.8727 9.41855C17.7827 9.79231 18.7412 9.88566 19.6497 9.73842L19.3297 7.76418C18.7738 7.85427 18.19 7.79747 17.6325 7.56851L16.8727 9.41855ZM19.6494 9.73847C21.3589 9.46192 22.8988 8.32941 23.6085 6.60572L21.7592 5.84418C21.326 6.89628 20.3849 7.59348 19.33 7.76414L19.6494 9.73847ZM23.6083 6.6063C24.1335 5.33326 24.1303 3.92608 23.6001 2.65491L21.7542 3.4249C22.0802 4.20623 22.0819 5.06198 21.7594 5.8436L23.6083 6.6063ZM23.6002 2.65512C23.0703 1.38418 22.0736 0.391599 20.7997 -0.131844L20.0396 1.71808C20.8219 2.03954 21.4283 2.64311 21.7541 3.42469L23.6002 2.65512ZM20.7954 -0.133597C20.4019 -0.293135 19.9812 -0.405072 19.5439 -0.466092L19.2675 1.51472C19.5476 1.55379 19.8082 1.62429 20.0438 1.71984L20.7954 -0.133597ZM19.5464 -0.465738L19.0258 -0.539734L18.7444 1.44037L19.265 1.51436L19.5464 -0.465738ZM18.2851 1.25032L18.7059 1.56594L19.9059 -0.0340572L19.4851 -0.349683L18.2851 1.25032ZM18.706 1.566C19.7648 2.35997 20.1503 3.76338 19.6496 4.97758L21.4985 5.74001C22.3486 3.67849 21.6911 1.30461 19.9058 -0.0341112L18.706 1.566ZM19.6496 4.97745C19.1482 6.19296 17.8871 6.91721 16.5784 6.7383L16.3075 8.71987C18.514 9.02153 20.6486 7.80036 21.4985 5.74014L19.6496 4.97745ZM16.5803 6.73856L16.0642 6.66699L15.7895 8.64803L16.3056 8.7196L16.5803 6.73856ZM15.3256 8.45658L15.7419 8.76978L16.9443 7.17165L16.5281 6.85844L15.3256 8.45658ZM15.7416 8.76957C16.0967 9.03698 16.4777 9.25728 16.8746 9.41933L17.6306 7.56773C17.4054 7.47577 17.1734 7.34412 16.9446 7.17187L15.7416 8.76957ZM21.7479 5.843C22.5613 3.87174 22.0681 1.62939 20.5659 0.175253L19.1749 1.61226C20.096 2.50392 20.3956 3.87687 19.8991 5.08016L21.7479 5.843ZM19.6109 1.85948C19.7283 1.89105 19.8382 1.92779 19.9406 1.96936L20.693 0.11628C20.5091 0.0416133 20.3209 -0.02067 20.13 -0.0719752L19.6109 1.85948ZM19.9363 1.9676C20.6531 2.26253 21.207 2.814 21.5051 3.52846L23.3509 2.75853C22.8487 1.55448 21.9044 0.614736 20.6973 0.118048L19.9363 1.9676ZM21.5053 3.52907C21.8038 4.24332 21.805 5.02547 21.5099 5.74133L23.359 6.50354C23.8561 5.29766 23.8546 3.9638 23.3507 2.75793L21.5053 3.52907ZM21.5101 5.74081C20.9013 7.21542 19.2072 7.92287 17.7352 7.31893L16.9761 9.16926C19.4719 10.1932 22.3305 8.99455 23.3588 6.50405L21.5101 5.74081ZM17.7378 7.31999C17.6311 7.27587 17.5284 7.22601 17.4299 7.16914L16.4294 8.9009C16.6114 9.00602 16.7939 9.09393 16.9735 9.1682L17.7378 7.31999ZM16.9181 9.03496C19.0172 9.0593 20.9372 7.8131 21.7483 5.84211L19.8987 5.08105C19.4026 6.28678 18.2298 7.05003 16.9413 7.03509L16.9181 9.03496Z" fill="black" mask="url(#path-1-inside-1_95_57)"/>
<path d="M17.0784 10.1713L17.2336 10.4426L17.5455 10.4221C17.6097 10.4178 17.6744 10.4088 17.7169 10.4028C17.7241 10.4018 17.7307 10.4009 17.7366 10.4001C17.7855 10.3934 17.8094 10.3914 17.8273 10.3914C20.2363 10.3914 22.1893 12.3444 22.1893 14.7533C22.1893 15.1376 22.1294 15.5104 22.0268 15.874H0.534444C0.51177 15.6836 0.5 15.4899 0.5 15.2936C0.5 12.5863 2.69486 10.3914 5.40223 10.3914C5.6403 10.3914 5.87462 10.4262 6.14993 10.4687L6.49305 10.5216L6.66253 10.2186C7.68684 8.38721 9.64063 7.1501 11.8848 7.1501C14.1088 7.1501 16.0468 8.36645 17.0784 10.1713Z" stroke="black"/>
</svg>
