<svg width="26" height="20" viewBox="0 0 26 20" fill="none" xmlns="http://www.w3.org/2000/svg">
<path d="M6.25247 19.9991H2.91952C2.80902 19.9991 2.70306 19.9552 2.62492 19.8771C2.54679 19.799 2.5029 19.693 2.5029 19.5825C2.5029 19.472 2.54679 19.366 2.62492 19.2879C2.70306 19.2098 2.80902 19.1659 2.91952 19.1659H6.25247C9.52905 19.1659 12.6598 15.7158 15.1754 12.9435C16.3107 11.6924 17.2912 10.6114 18.1033 10.0703C19.0931 9.39751 20.2623 9.0378 21.459 9.0378C22.6558 9.0378 23.825 9.39751 24.8148 10.0703C24.9066 10.1316 24.9703 10.2269 24.992 10.3352C25.0136 10.4435 24.9913 10.5559 24.93 10.6478C24.8688 10.7397 24.7735 10.8035 24.6653 10.8252C24.557 10.8469 24.4445 10.8247 24.3526 10.7636C23.4966 10.19 22.4894 9.88377 21.459 9.88377C20.4286 9.88377 19.4215 10.19 18.5655 10.7636C17.8393 11.2477 16.8907 12.2929 15.7924 13.5033C13.1663 16.3972 9.89788 19.9991 6.25247 19.9991Z" fill="black"/>
<path d="M13.643 15.6234C13.6236 15.6234 13.6043 15.622 13.5852 15.6192C9.78638 15.0932 8.32234 13.6598 6.90625 12.2741C6.37137 11.7226 5.7932 11.2149 5.17729 10.7557C3.03887 9.22839 2.2827 9.85998 1.3254 10.6576C1.11008 10.8438 0.884922 11.0182 0.650892 11.1801C0.605385 11.2111 0.554198 11.2327 0.500287 11.2437C0.446376 11.2548 0.390809 11.2551 0.336796 11.2445C0.282784 11.234 0.231395 11.2128 0.185598 11.1823C0.139802 11.1518 0.100505 11.1125 0.0699774 11.0667C0.0394497 11.0209 0.0182962 10.9695 0.00773855 10.9155C-0.00281908 10.8615 -0.00257163 10.806 0.00846664 10.752C0.0195049 10.6981 0.0411153 10.6469 0.0720496 10.6014C0.102984 10.5559 0.142629 10.517 0.188696 10.4869C0.397848 10.3413 0.599122 10.1847 0.791668 10.0178C1.77522 9.19756 2.99945 8.17676 5.66131 10.078C6.31215 10.5621 6.92335 11.0973 7.4891 11.6785C8.86936 13.0297 10.1729 14.3056 13.6995 14.7942C13.8037 14.809 13.8984 14.8627 13.9646 14.9445C14.0308 15.0263 14.0636 15.13 14.0564 15.235C14.0493 15.34 14.0027 15.4383 13.926 15.5104C13.8493 15.5824 13.7482 15.6228 13.643 15.6234Z" fill="black"/>
<path d="M25.4198 4.29752H17.4166C17.3569 4.29752 17.298 4.2847 17.2437 4.25994C17.1894 4.23518 17.1411 4.19905 17.102 4.15399C17.0629 4.10894 17.0339 4.05601 17.017 3.99879C17.0001 3.94157 16.9958 3.88139 17.0041 3.82233C17.0416 3.556 17.1424 3.30253 17.298 3.08316C17.4536 2.86379 17.6595 2.68492 17.8985 2.56152C18.1374 2.43812 18.4025 2.37379 18.6714 2.37393C18.9404 2.37406 19.2054 2.43866 19.4442 2.56231C19.6846 2.36547 19.9757 2.24052 20.284 2.20185C20.3252 1.8201 20.4844 1.4607 20.7395 1.17372C20.9151 0.97678 21.1304 0.819217 21.3712 0.711371C21.6121 0.603525 21.873 0.547835 22.1369 0.547956C22.5618 0.544563 22.9749 0.687665 23.3067 0.953173C23.6384 1.21868 23.8686 1.59038 23.9584 2.0057H23.9775C24.3788 2.00694 24.7687 2.1394 25.0878 2.38287C25.3209 2.55676 25.51 2.78283 25.64 3.04297C25.77 3.30311 25.8373 3.59009 25.8365 3.8809C25.8365 3.9914 25.7926 4.09737 25.7144 4.1755C25.6363 4.25363 25.5303 4.29752 25.4198 4.29752ZM19.6975 3.46429H24.9166C24.8441 3.29935 24.7302 3.15597 24.5859 3.04808C24.4627 2.95281 24.3188 2.88776 24.1659 2.85816C24.013 2.82855 23.8553 2.83521 23.7054 2.8776C23.6434 2.89534 23.5781 2.89844 23.5147 2.88665C23.4513 2.87485 23.3915 2.84849 23.34 2.80965C23.2885 2.7708 23.2467 2.72052 23.218 2.66278C23.1892 2.60504 23.1742 2.54141 23.1743 2.4769C23.1859 2.26195 23.1305 2.0487 23.0157 1.86658C22.901 1.68447 22.7325 1.54248 22.5336 1.46022C22.3347 1.37796 22.1151 1.35949 21.9052 1.40737C21.6954 1.45524 21.5055 1.5671 21.362 1.72749C21.261 1.8426 21.1865 1.97839 21.1435 2.12535C21.1006 2.2723 21.0903 2.42687 21.1134 2.57822C21.1211 2.64317 21.1135 2.70903 21.091 2.77047C21.0686 2.8319 21.032 2.88718 20.9841 2.93182C20.9363 2.97646 20.8787 3.0092 20.8158 3.02739C20.753 3.04557 20.6868 3.0487 20.6225 3.0365C20.4738 3.01114 20.3209 3.02735 20.1808 3.08335C20.0407 3.13934 19.9188 3.23295 19.8285 3.35384C19.7929 3.39927 19.7483 3.43687 19.6975 3.46429ZM18.0597 3.46429H19.3017C19.2769 3.45078 19.2535 3.43483 19.2319 3.41667C19.1156 3.31431 18.9735 3.24583 18.821 3.21871C18.6685 3.1916 18.5115 3.20688 18.3671 3.26289C18.2513 3.30708 18.1465 3.37578 18.0597 3.46429Z" fill="black"/>
<path d="M10.4183 5.29752H2.41659C2.35693 5.29752 2.29797 5.2847 2.24369 5.25994C2.18942 5.23518 2.14109 5.19905 2.10199 5.15399C2.06288 5.10894 2.03391 5.05601 2.01703 4.99879C2.00015 4.94157 1.99575 4.88139 2.00414 4.82233C2.04122 4.55585 2.14167 4.30215 2.29707 4.08252C2.45246 3.86289 2.65826 3.68374 2.89721 3.56008C3.13615 3.43643 3.40127 3.37188 3.67031 3.37186C3.93935 3.37184 4.20448 3.43635 4.44344 3.55997C4.68201 3.36427 4.97166 3.24102 5.27809 3.20481C5.31896 2.83579 5.46993 2.48762 5.71138 2.20559C5.88736 1.99934 6.10599 1.83373 6.35219 1.7202C6.5984 1.60666 6.8663 1.54789 7.13742 1.54795C7.56263 1.5446 7.976 1.68791 8.30789 1.95373C8.63979 2.21955 8.86991 2.59165 8.9595 3.00733C8.96559 3.00691 8.97171 3.00691 8.97779 3.00691C9.38024 3.00792 9.77126 3.14083 10.091 3.38528C10.3228 3.55946 10.5108 3.78537 10.64 4.04503C10.7691 4.30468 10.8359 4.5909 10.8349 4.8809C10.8349 4.9914 10.791 5.09737 10.7129 5.1755C10.6348 5.25363 10.5288 5.29752 10.4183 5.29752ZM4.69549 4.46428H9.91572C9.84389 4.30019 9.73094 4.1574 9.5878 4.04971C9.46419 3.95416 9.31991 3.8889 9.16653 3.85916C9.01315 3.82942 8.85494 3.83602 8.70457 3.87844C8.64264 3.89584 8.57751 3.89866 8.5143 3.88668C8.45109 3.8747 8.39151 3.84824 8.34023 3.80938C8.28896 3.77052 8.24738 3.72031 8.21876 3.66269C8.19014 3.60508 8.17525 3.54161 8.17526 3.47727C8.1869 3.26002 8.13013 3.04459 8.01296 2.86127C7.89578 2.67796 7.72409 2.53599 7.52203 2.45534C7.31997 2.37468 7.09771 2.3594 6.88651 2.41164C6.67531 2.46388 6.4858 2.58102 6.34464 2.74657C6.2485 2.85711 6.17787 2.98747 6.13776 3.12837C6.09765 3.26928 6.08904 3.41728 6.11254 3.56189C6.12276 3.62682 6.11748 3.69324 6.09715 3.75574C6.07682 3.81825 6.04201 3.87506 5.99555 3.92156C5.94931 3.96829 5.89254 4.00327 5.83 4.02357C5.76746 4.04386 5.70097 4.04888 5.63609 4.03821C5.48522 4.01094 5.32974 4.02596 5.18687 4.08161C5.044 4.13726 4.91933 4.23137 4.82665 4.35351C4.79105 4.39909 4.74639 4.43681 4.69549 4.46428ZM3.05818 4.46428H4.30104C4.27486 4.45037 4.25029 4.4336 4.2278 4.41429C4.06341 4.27151 3.85058 4.19712 3.63304 4.20642C3.4155 4.21572 3.20979 4.30799 3.05818 4.46428Z" fill="black"/>
<path d="M17.8484 7.39633H15.5604C15.525 6.80161 15.2903 6.26433 14.918 5.84533L16.5357 4.22761C16.5937 4.16847 16.5937 4.07133 16.5357 4.01218C16.4766 3.95304 16.3794 3.95304 16.3203 4.01218L14.7026 5.6299C14.2836 5.25761 13.7461 5.02275 13.1516 4.98747V2.69947C13.1516 2.61533 13.084 2.5479 13 2.5479C12.916 2.5479 12.8484 2.61533 12.8484 2.69947V4.98747C12.2537 5.0229 11.7164 5.25761 11.2974 5.6299L9.67971 4.01218C9.62057 3.95304 10.0591 4.48875 10 4.5479C9.942 4.60704 9.62171 4.41844 9.67971 4.47758L11.082 5.84533C10.7097 6.26433 10.4749 6.80175 10.4396 7.39633H8.15157C8.06743 7.39633 8 7.4639 8 7.5479C8 7.6319 8.06743 7.69947 8.15157 7.69947H10.4396C10.475 8.29418 10.7097 8.83147 11.082 9.25047L9.46429 10.8682C9.40629 10.9273 9.40629 11.0245 9.46429 11.0836C9.49386 11.1132 9.533 11.1275 9.572 11.1275C9.611 11.1275 9.65014 11.1133 9.67971 11.0836L11.2974 9.4659C11.7164 9.83818 12.2539 10.073 12.8484 10.1083V12.3963C12.8484 12.4805 12.916 12.5479 13 12.5479C13.084 12.5479 13.1516 12.4805 13.1516 12.3963V10.1083C13.7463 10.0729 14.2836 9.83818 14.7026 9.4659L16.3203 11.0836C16.3499 11.1132 16.389 11.1275 16.428 11.1275C16.467 11.1275 16.5061 11.1133 16.5357 11.0836C16.5937 11.0245 16.5937 10.9273 16.5357 10.8682L14.918 9.25047C15.2903 8.83147 15.5251 8.29404 15.5604 7.69947H17.8484C17.9326 7.69947 18 7.6319 18 7.5479C18 7.4639 17.9326 7.39633 17.8484 7.39633ZM14.7039 9.03633C14.6366 9.11318 14.5653 9.18447 14.4884 9.25175C14.1249 9.56961 13.6629 9.77076 13.1514 9.80533C13.1004 9.80876 13.0517 9.82061 12.9999 9.82061C12.948 9.82061 12.8994 9.80876 12.8483 9.80533C12.337 9.7709 11.8749 9.56975 11.5113 9.25175C11.4344 9.18447 11.3631 9.11318 11.2959 9.03633C10.978 8.67275 10.7769 8.21076 10.7423 7.69933C10.7389 7.64833 10.727 7.59961 10.727 7.54775C10.727 7.4959 10.7389 7.44733 10.7423 7.39618C10.7767 6.8849 10.9779 6.42275 11.2959 6.05918C11.3631 5.98233 11.4344 5.91104 11.5113 5.84375C11.8749 5.5259 12.3369 5.32475 12.8483 5.29018C12.8993 5.28675 12.948 5.2749 12.9999 5.2749C13.0517 5.2749 13.1003 5.28675 13.1514 5.29018C13.6627 5.32461 14.1249 5.52575 14.4884 5.84375C14.5653 5.91104 14.6366 5.98233 14.7039 6.05918C15.0217 6.42275 15.2229 6.88475 15.2574 7.39618C15.2609 7.44718 15.2727 7.4959 15.2727 7.54775C15.2727 7.59961 15.2609 7.64818 15.2574 7.69933C15.223 8.21076 15.0217 8.67275 14.7039 9.03633Z" fill="black"/>
</svg>
