<svg width="23" height="24" viewBox="0 0 23 24" fill="none" xmlns="http://www.w3.org/2000/svg">
<path d="M22.6514 11.6993H17.389C17.3075 10.3314 16.7677 9.09568 15.9114 8.13198L19.6321 4.41124C19.7655 4.27521 19.7655 4.05178 19.6321 3.91575C19.4961 3.77973 19.2727 3.77973 19.1367 3.91575L15.4159 7.6365C14.4522 6.78024 13.2161 6.24007 11.8486 6.15891V0.896512C11.8486 0.702983 11.6932 0.547897 11.5 0.547897C11.3068 0.547897 11.1514 0.702983 11.1514 0.896512V6.15891C9.78354 6.2404 8.54779 6.78024 7.58409 7.6365L3.86334 3.91575C3.72731 3.77973 3.50389 3.77973 3.36786 3.91575C3.23446 4.05178 3.23446 4.27521 3.36786 4.41124L7.0886 8.13198C6.23234 9.09568 5.69217 10.3318 5.61101 11.6993H0.348615C0.155086 11.6993 0 11.8547 0 12.0479C0 12.2411 0.155086 12.3965 0.348615 12.3965H5.61101C5.6925 13.7644 6.23234 15.0001 7.0886 15.9638L3.36786 19.6846C3.23446 19.8206 3.23446 20.044 3.36786 20.18C3.43587 20.2481 3.5259 20.2809 3.6156 20.2809C3.7053 20.2809 3.79533 20.2484 3.86334 20.18L7.58409 16.4593C8.54779 17.3156 9.78387 17.8557 11.1514 17.9369V23.1993C11.1514 23.3928 11.3068 23.5479 11.5 23.5479C11.6932 23.5479 11.8486 23.3928 11.8486 23.1993V17.9369C13.2165 17.8554 14.4522 17.3156 15.4159 16.4593L19.1367 20.18C19.2047 20.2481 19.2947 20.2809 19.3844 20.2809C19.4741 20.2809 19.5641 20.2484 19.6321 20.18C19.7655 20.044 19.7655 19.8206 19.6321 19.6846L15.9114 15.9638C16.7677 15.0001 17.3078 13.764 17.389 12.3965H22.6514C22.8449 12.3965 23 12.2411 23 12.0479C23 11.8547 22.8449 11.6993 22.6514 11.6993ZM15.4189 15.4713C15.2641 15.6481 15.1002 15.812 14.9234 15.9668C14.0872 16.6978 13.0246 17.1605 11.8483 17.24C11.731 17.2479 11.6189 17.2751 11.4997 17.2751C11.3804 17.2751 11.2687 17.2479 11.1511 17.24C9.9751 17.1608 8.91217 16.6982 8.07596 15.9668C7.89919 15.812 7.73523 15.6481 7.58047 15.4713C6.8494 14.6351 6.38677 13.5725 6.30726 12.3962C6.29937 12.2789 6.2721 12.1668 6.2721 12.0476C6.2721 11.9283 6.29937 11.8166 6.30726 11.699C6.38644 10.523 6.84907 9.46007 7.58047 8.62385C7.73523 8.44708 7.89919 8.28313 8.07596 8.12837C8.91217 7.3973 9.97477 6.93467 11.1511 6.85515C11.2684 6.84727 11.3804 6.82 11.4997 6.82C11.6189 6.82 11.7307 6.84727 11.8483 6.85515C13.0242 6.93434 14.0872 7.39697 14.9234 8.12837C15.1002 8.28313 15.2641 8.44708 15.4189 8.62385C16.1499 9.46007 16.6126 10.5227 16.6921 11.699C16.7 11.8163 16.7272 11.9283 16.7272 12.0476C16.7272 12.1668 16.7 12.2786 16.6921 12.3962C16.6129 13.5725 16.1499 14.6351 15.4189 15.4713Z" fill="black"/>
</svg>
