<svg width="14" height="13" viewBox="0 0 14 13" fill="none" xmlns="http://www.w3.org/2000/svg">
<path fill-rule="evenodd" clip-rule="evenodd" d="M1.42627 9.90714C1.42627 10.8271 2.17144 11.572 3.08995 11.572H10.9102C11.8287 11.572 12.5739 10.8271 12.5739 9.90714V8.24693C12.5739 7.85277 12.8934 7.53296 13.2873 7.53296C13.6812 7.53296 14 7.85277 14 8.24693V9.90714C14 11.6154 12.6164 13 10.9101 13H3.08989C1.38364 13 0 11.6154 0 9.90714V8.24693C0 7.85277 0.318815 7.53296 0.712688 7.53296C1.10656 7.53296 1.42615 7.85277 1.42615 8.24693L1.42627 9.90714ZM3.87314 6.00588C4.1517 5.72712 4.60285 5.72712 4.88141 6.00588L6.28666 7.41212V0.713962C6.28666 0.319812 6.60625 0 7.00012 0C7.39399 0 7.71358 0.319812 7.71358 0.713962V7.41212L9.11883 6.00588C9.39739 5.72712 9.84853 5.72712 10.1271 6.00588C10.4057 6.28464 10.4057 6.7361 10.1271 7.01486L7.50471 9.63909C7.37084 9.77305 7.18898 9.84817 7.00018 9.84817C6.81137 9.84817 6.62952 9.77305 6.49565 9.63909L3.87326 7.01486C3.5947 6.7361 3.59458 6.28464 3.87314 6.00588Z" fill="black"/>
</svg>
