<svg width="19" height="17" viewBox="0 0 19 17" fill="none" xmlns="http://www.w3.org/2000/svg">
<path d="M4.55587 17H2.1273C2.04679 17 1.96958 16.968 1.91264 16.9111C1.85571 16.8542 1.82373 16.7769 1.82373 16.6964C1.82373 16.6159 1.85571 16.5387 1.91264 16.4818C1.96958 16.4248 2.04679 16.3929 2.1273 16.3929H4.55587C6.94352 16.3929 9.22447 13.8789 11.0575 11.8589C11.8849 10.9473 12.5993 10.1596 13.1911 9.76528C13.9123 9.27501 14.7642 9.01286 15.6362 9.01286C16.5083 9.01286 17.3602 9.27501 18.0814 9.76528C18.1483 9.80997 18.1948 9.8794 18.2105 9.95832C18.2263 10.0372 18.21 10.1192 18.1654 10.1861C18.1208 10.2531 18.0514 10.2996 17.9725 10.3154C17.8936 10.3312 17.8116 10.315 17.7446 10.2705C17.1208 9.85269 16.387 9.62966 15.6362 9.62966C14.8855 9.62966 14.1516 9.85269 13.5278 10.2705C12.9986 10.6232 12.3075 11.3848 11.5072 12.2668C9.59385 14.3755 7.21243 17 4.55587 17Z" fill="black"/>
<path d="M9.94103 13.8116C9.92704 13.8116 9.91307 13.8106 9.89923 13.8086C7.13093 13.4253 6.06397 12.3809 5.03231 11.3711C4.64253 10.9693 4.22125 10.5994 3.77249 10.2648C2.21489 9.15229 1.66321 9.61165 0.965941 10.1933C0.809016 10.3289 0.644889 10.456 0.474276 10.574C0.441117 10.5966 0.403819 10.6123 0.364537 10.6204C0.325254 10.6284 0.284765 10.6286 0.245408 10.6209C0.206052 10.6132 0.168607 10.5978 0.135237 10.5756C0.101867 10.5534 0.0732336 10.5247 0.0509894 10.4914C0.0287453 10.458 0.0133316 10.4206 0.00563874 10.3812C-0.00205414 10.3419 -0.00187383 10.3014 0.00616926 10.2621C0.0142124 10.2228 0.0299589 10.1855 0.0524993 10.1523C0.0750398 10.1192 0.103928 10.0908 0.137494 10.0689C0.289867 9.96274 0.436525 9.84864 0.576853 9.72704C1.29368 9.1294 2.18578 8.38559 4.12515 9.77091C4.59943 10.1235 5.04474 10.5135 5.45682 10.9372C6.46271 11.9217 7.41255 12.8514 9.98222 13.2074C10.0581 13.2182 10.1271 13.2574 10.1754 13.3169C10.2236 13.3765 10.2475 13.4521 10.2423 13.5286C10.2371 13.6051 10.2031 13.6768 10.1472 13.7293C10.0914 13.7817 10.0177 13.8112 9.94103 13.8116Z" fill="black"/>
<path d="M9.94125 13.8125C9.92726 13.8125 9.91329 13.8115 9.89945 13.8095C7.12848 13.4253 6.06213 12.3803 5.03105 11.3696C4.82559 11.1686 4.61986 10.9668 4.39901 10.7693C4.3477 10.7234 4.31353 10.6613 4.30212 10.5934C4.2907 10.5255 4.30271 10.4557 4.33617 10.3955C4.78425 9.59024 5.42879 8.91143 6.20978 8.42227C6.99078 7.93311 7.88284 7.6495 8.80292 7.59784C9.72301 7.54618 10.6412 7.72814 11.4721 8.1268C12.3029 8.52546 13.0194 9.12784 13.5548 9.87788C13.5781 9.91051 13.5947 9.94743 13.6036 9.98651C13.6126 10.0256 13.6137 10.0661 13.6069 10.1056C13.6002 10.1451 13.5856 10.1829 13.5642 10.2167C13.5427 10.2506 13.5148 10.2799 13.4819 10.3029C12.7634 10.8961 12.1015 11.5548 11.5049 12.2705C11.0771 12.7421 10.6348 13.2297 10.1592 13.7201C10.131 13.7493 10.0971 13.7726 10.0596 13.7884C10.0222 13.8043 9.98192 13.8125 9.94125 13.8125ZM4.98785 10.4851C5.14971 10.636 5.30474 10.7881 5.45595 10.9363C6.44107 11.9016 7.37255 12.8143 9.83075 13.1861C10.2591 12.7402 10.6635 12.2946 11.0551 11.8627C11.6228 11.2013 12.2334 10.578 12.8829 9.99682C12.3959 9.39518 11.772 8.9187 11.0635 8.60713C10.3549 8.29556 9.5821 8.15792 8.80953 8.2057C8.03695 8.25348 7.287 8.48529 6.62222 8.8818C5.95744 9.27831 5.39701 9.82802 4.98785 10.4851Z" fill="black"/>
<path d="M9.10948 7.28571C9.02897 7.28571 8.95175 7.25373 8.89482 7.1968C8.83789 7.13987 8.80591 7.06266 8.80591 6.98214V4.55357C8.80591 4.47306 8.83789 4.39584 8.89482 4.33891C8.95175 4.28198 9.02897 4.25 9.10948 4.25C9.18999 4.25 9.26721 4.28198 9.32414 4.33891C9.38107 4.39584 9.41305 4.47306 9.41305 4.55357V6.98214C9.41305 7.06266 9.38107 7.13987 9.32414 7.1968C9.26721 7.25373 9.18999 7.28571 9.10948 7.28571Z" fill="black"/>
<path d="M13.4027 9.06401C13.3427 9.06399 13.284 9.04618 13.2341 9.01282C13.1842 8.97947 13.1453 8.93206 13.1223 8.8766C13.0994 8.82113 13.0934 8.76011 13.1051 8.70123C13.1168 8.64235 13.1457 8.58826 13.1881 8.54581L14.9052 6.8286C14.9624 6.77286 15.0392 6.74189 15.1191 6.74239C15.1989 6.7429 15.2753 6.77484 15.3318 6.8313C15.3883 6.88776 15.4202 6.96419 15.4207 7.04403C15.4212 7.12388 15.3902 7.20071 15.3345 7.25788L13.6175 8.97506C13.5893 9.00331 13.5559 9.02571 13.519 9.04097C13.4821 9.05624 13.4426 9.06407 13.4027 9.06401Z" fill="black"/>
<path d="M4.81618 9.06401C4.77631 9.06405 4.73682 9.05622 4.69999 9.04095C4.66315 9.02569 4.6297 9.00329 4.60155 8.97506L2.88449 7.25785C2.82875 7.20068 2.79778 7.12385 2.79828 7.044C2.79879 6.96416 2.83073 6.88773 2.88719 6.83127C2.94365 6.77481 3.02008 6.74287 3.09993 6.74236C3.17977 6.74186 3.2566 6.77283 3.31377 6.82857L5.03086 8.54578C5.0733 8.58823 5.10221 8.64232 5.11391 8.7012C5.12562 8.76008 5.11961 8.8211 5.09664 8.87657C5.07367 8.93203 5.03477 8.97944 4.98486 9.01279C4.93495 9.04615 4.87621 9.06399 4.81618 9.06401Z" fill="black"/>
<path d="M3.64519 5.46429H1.52019C1.43967 5.46429 1.36246 5.43231 1.30553 5.37538C1.2486 5.31845 1.21661 5.24123 1.21661 5.16072C1.21661 5.08021 1.2486 5.00299 1.30553 4.94606C1.36246 4.88913 1.43967 4.85715 1.52019 4.85715H3.64519C3.7257 4.85715 3.80291 4.88913 3.85984 4.94606C3.91677 5.00299 3.94876 5.08021 3.94876 5.16072C3.94876 5.24123 3.91677 5.31845 3.85984 5.37538C3.80291 5.43231 3.7257 5.46429 3.64519 5.46429Z" fill="black"/>
<path d="M5.46661 3.94642H2.43089C2.35038 3.94642 2.27316 3.91444 2.21623 3.85751C2.1593 3.80058 2.12732 3.72336 2.12732 3.64285C2.12732 3.56234 2.1593 3.48512 2.21623 3.42819C2.27316 3.37126 2.35038 3.33928 2.43089 3.33928H5.46661C5.54712 3.33928 5.62433 3.37126 5.68126 3.42819C5.73819 3.48512 5.77018 3.56234 5.77018 3.64285C5.77018 3.72336 5.73819 3.80058 5.68126 3.85751C5.62433 3.91444 5.54712 3.94642 5.46661 3.94642Z" fill="black"/>
<path d="M17.913 3.64286H14.8773C14.7968 3.64286 14.7196 3.61088 14.6626 3.55395C14.6057 3.49702 14.5737 3.4198 14.5737 3.33929C14.5737 3.25878 14.6057 3.18157 14.6626 3.12463C14.7196 3.0677 14.7968 3.03572 14.8773 3.03572H17.913C17.9935 3.03572 18.0707 3.0677 18.1277 3.12463C18.1846 3.18157 18.2166 3.25878 18.2166 3.33929C18.2166 3.4198 18.1846 3.49702 18.1277 3.55395C18.0707 3.61088 17.9935 3.64286 17.913 3.64286Z" fill="black"/>
<path d="M15.4844 2.125H12.7523C12.6718 2.125 12.5946 2.09301 12.5376 2.03608C12.4807 1.97915 12.4487 1.90194 12.4487 1.82142C12.4487 1.74091 12.4807 1.6637 12.5376 1.60677C12.5946 1.54984 12.6718 1.51785 12.7523 1.51785H15.4844C15.565 1.51785 15.6422 1.54984 15.6991 1.60677C15.756 1.6637 15.788 1.74091 15.788 1.82142C15.788 1.90194 15.756 1.97915 15.6991 2.03608C15.6422 2.09301 15.565 2.125 15.4844 2.125Z" fill="black"/>
<path d="M6.07373 0.607143H4.2523C4.17179 0.607143 4.09458 0.57516 4.03764 0.518229C3.98071 0.461298 3.94873 0.384084 3.94873 0.303571C3.94873 0.223059 3.98071 0.145845 4.03764 0.088914C4.09458 0.0319833 4.17179 0 4.2523 0H6.07373C6.15424 0 6.23146 0.0319833 6.28839 0.088914C6.34532 0.145845 6.3773 0.223059 6.3773 0.303571C6.3773 0.384084 6.34532 0.461298 6.28839 0.518229C6.23146 0.57516 6.15424 0.607143 6.07373 0.607143Z" fill="black"/>
<path d="M9.10949 1.51786H6.07377C5.99326 1.51786 5.91605 1.48588 5.85912 1.42895C5.80219 1.37202 5.7702 1.2948 5.7702 1.21429C5.7702 1.13378 5.80219 1.05657 5.85912 0.999635C5.91605 0.942704 5.99326 0.910721 6.07377 0.910721H9.10949C9.19 0.910721 9.26722 0.942704 9.32415 0.999635C9.38108 1.05657 9.41306 1.13378 9.41306 1.21429C9.41306 1.2948 9.38108 1.37202 9.32415 1.42895C9.26722 1.48588 9.19 1.51786 9.10949 1.51786Z" fill="black"/>
</svg>
