<svg width="25" height="18" viewBox="0 0 25 18" fill="none" xmlns="http://www.w3.org/2000/svg">
<path d="M6.25244 17.4503H2.91949C2.80899 17.4503 2.70302 17.4064 2.62489 17.3283C2.54676 17.2502 2.50287 17.1442 2.50287 17.0337C2.50287 16.9232 2.54676 16.8172 2.62489 16.7391C2.70302 16.661 2.80899 16.6171 2.91949 16.6171H6.25244C9.52902 16.6171 12.6598 13.167 15.1754 10.3947C16.3107 9.14362 17.2912 8.06258 18.1033 7.52148C19.0931 6.84873 20.2622 6.48901 21.459 6.48901C22.6558 6.48901 23.8249 6.84873 24.8147 7.52148C24.9066 7.58281 24.9703 7.6781 24.9919 7.78639C25.0135 7.89469 24.9913 8.00714 24.93 8.09903C24.8687 8.19091 24.7735 8.25472 24.6652 8.27642C24.557 8.29813 24.4445 8.27595 24.3526 8.21477C23.4966 7.64121 22.4894 7.33498 21.459 7.33498C20.4286 7.33498 19.4215 7.64121 18.5655 8.21477C17.8392 8.69892 16.8907 9.74414 15.7924 10.9545C13.1663 13.8485 9.89785 17.4503 6.25244 17.4503Z" fill="black"/>
<path d="M13.643 13.0746C13.6236 13.0746 13.6043 13.0733 13.5852 13.0705C9.78638 12.5444 8.32234 11.1111 6.90625 9.7253C6.37137 9.17385 5.7932 8.66611 5.17729 8.20693C3.03887 6.67961 2.2827 7.3112 1.3254 8.10886C1.11008 8.29497 0.884922 8.46939 0.650892 8.63134C0.605385 8.66229 0.554198 8.68391 0.500287 8.69496C0.446376 8.70601 0.390809 8.70628 0.336796 8.69573C0.282784 8.68519 0.231395 8.66405 0.185598 8.63353C0.139802 8.60302 0.100505 8.56373 0.0699774 8.51794C0.0394497 8.47215 0.0182962 8.42077 0.00773855 8.36676C-0.00281908 8.31275 -0.00257163 8.25718 0.00846664 8.20327C0.0195049 8.14935 0.0411153 8.09816 0.0720496 8.05265C0.102984 8.00713 0.142629 7.96819 0.188696 7.93809C0.397848 7.7925 0.599122 7.63591 0.791668 7.46898C1.77522 6.64878 2.99945 5.62798 5.66131 7.52918C6.31215 8.01327 6.92335 8.54849 7.4891 9.12974C8.86936 10.4809 10.1729 11.7568 13.6995 12.2454C13.8037 12.2603 13.8984 12.3139 13.9646 12.3957C14.0308 12.4775 14.0636 12.5813 14.0564 12.6862C14.0493 12.7912 14.0027 12.8896 13.926 12.9616C13.8493 13.0336 13.7482 13.0741 13.643 13.0746Z" fill="black"/>
<path d="M21.3828 6.52651H13.3795C13.3199 6.52651 13.2609 6.51369 13.2066 6.48893C13.1524 6.46417 13.104 6.42804 13.0649 6.38298C13.0258 6.33793 12.9969 6.285 12.98 6.22778C12.9631 6.17056 12.9587 6.11038 12.9671 6.05132C13.0046 5.78499 13.1053 5.53152 13.2609 5.31215C13.4165 5.09278 13.6224 4.9139 13.8614 4.7905C14.1004 4.6671 14.3654 4.60278 14.6344 4.60292C14.9033 4.60305 15.1683 4.66765 15.4072 4.7913C15.6476 4.59446 15.9386 4.46951 16.2469 4.43084C16.2881 4.04909 16.4473 3.68969 16.7024 3.40271C16.878 3.20577 17.0934 3.04821 17.3342 2.94036C17.575 2.83251 17.8359 2.77682 18.0998 2.77694C18.5247 2.77355 18.9378 2.91665 19.2696 3.18216C19.6014 3.44767 19.8315 3.81937 19.9213 4.23469H19.9405C20.3418 4.23593 20.7317 4.36838 21.0507 4.61186C21.2838 4.78575 21.473 5.01182 21.603 5.27196C21.733 5.5321 21.8003 5.81908 21.7994 6.10989C21.7994 6.22039 21.7555 6.32636 21.6774 6.40449C21.5992 6.48262 21.4933 6.52651 21.3828 6.52651ZM15.6605 5.69327H20.8796C20.8071 5.52834 20.6931 5.38496 20.5488 5.27707C20.4256 5.1818 20.2818 5.11675 20.1289 5.08715C19.976 5.05754 19.8183 5.0642 19.6684 5.10659C19.6064 5.12433 19.5411 5.12743 19.4777 5.11564C19.4142 5.10384 19.3544 5.07748 19.3029 5.03864C19.2514 4.99979 19.2097 4.94951 19.1809 4.89177C19.1521 4.83403 19.1372 4.7704 19.1372 4.70589C19.1488 4.49094 19.0935 4.27769 18.9787 4.09557C18.8639 3.91346 18.6955 3.77147 18.4965 3.68921C18.2976 3.60695 18.0781 3.58848 17.8682 3.63636C17.6583 3.68423 17.4685 3.79609 17.3249 3.95648C17.224 4.07159 17.1494 4.20738 17.1065 4.35434C17.0635 4.50129 17.0533 4.65586 17.0763 4.80721C17.0841 4.87216 17.0764 4.93802 17.054 4.99946C17.0315 5.06089 16.9949 5.11617 16.9471 5.16081C16.8993 5.20545 16.8416 5.23819 16.7788 5.25637C16.716 5.27456 16.6497 5.27769 16.5855 5.26549C16.4367 5.24013 16.2839 5.25634 16.1438 5.31234C16.0037 5.36833 15.8818 5.46194 15.7915 5.58283C15.7559 5.62826 15.7113 5.66586 15.6605 5.69327ZM14.0227 5.69327H15.2646C15.2398 5.67977 15.2164 5.66382 15.1948 5.64566C15.0786 5.54329 14.9365 5.47482 14.784 5.4477C14.6315 5.42059 14.4745 5.43587 14.3301 5.49188C14.2143 5.53607 14.1094 5.60477 14.0227 5.69327Z" fill="black"/>
<path d="M9.3442 3.74874H1.34249C1.28284 3.74874 1.22387 3.73592 1.1696 3.71116C1.11532 3.68639 1.067 3.65026 1.02789 3.60521C0.988785 3.56016 0.959811 3.50723 0.94293 3.45001C0.926049 3.39279 0.921654 3.33261 0.930042 3.27354C0.967125 3.00707 1.06758 2.75337 1.22297 2.53374C1.37836 2.31411 1.58417 2.13495 1.82311 2.0113C2.06205 1.88764 2.32717 1.8231 2.59621 1.82308C2.86526 1.82306 3.13038 1.88757 3.36934 2.01119C3.60791 1.81549 3.89756 1.69224 4.204 1.65602C4.24486 1.28701 4.39584 0.938841 4.63728 0.656805C4.81326 0.450559 5.03189 0.284952 5.2781 0.171414C5.5243 0.0578758 5.7922 -0.000889814 6.06332 -0.000827394C6.48853 -0.00418292 6.90191 0.139123 7.2338 0.404948C7.56569 0.670772 7.79582 1.04287 7.88541 1.45855C7.89149 1.45813 7.89761 1.45813 7.9037 1.45813C8.30614 1.45913 8.69716 1.59205 9.01686 1.8365C9.24873 2.01068 9.43673 2.23659 9.56588 2.49624C9.69504 2.7559 9.76179 3.04212 9.76081 3.33212C9.76081 3.44261 9.71692 3.54858 9.63879 3.62671C9.56066 3.70485 9.45469 3.74874 9.3442 3.74874ZM3.6214 2.9155H8.84163C8.76979 2.75141 8.65685 2.60862 8.51371 2.50093C8.39009 2.40538 8.24582 2.34012 8.09244 2.31038C7.93906 2.28064 7.78084 2.28724 7.63048 2.32965C7.56854 2.34706 7.50341 2.34988 7.4402 2.3379C7.37699 2.32592 7.31741 2.29946 7.26614 2.2606C7.21486 2.22174 7.17328 2.17153 7.14466 2.11391C7.11604 2.05629 7.10115 1.99283 7.10116 1.92849C7.1128 1.71124 7.05604 1.49581 6.93886 1.31249C6.82169 1.12918 6.64999 0.98721 6.44793 0.906555C6.24587 0.825901 6.02361 0.810619 5.81241 0.862859C5.60121 0.9151 5.4117 1.03223 5.27054 1.19778C5.1744 1.30833 5.10377 1.43868 5.06366 1.57959C5.02355 1.72049 5.01494 1.8685 5.03844 2.01311C5.04866 2.07803 5.04339 2.14446 5.02306 2.20696C5.00273 2.26946 4.96791 2.32628 4.92146 2.37277C4.87521 2.41951 4.81844 2.45449 4.7559 2.47479C4.69337 2.49508 4.62687 2.5001 4.562 2.48943C4.41112 2.46216 4.25564 2.47718 4.11277 2.53283C3.96991 2.58848 3.84523 2.68258 3.75255 2.80472C3.71695 2.85031 3.6723 2.88803 3.6214 2.9155ZM1.98409 2.9155H3.22694C3.20076 2.90159 3.1762 2.88482 3.1537 2.86551C2.98932 2.72272 2.77648 2.64834 2.55894 2.65764C2.3414 2.66693 2.13569 2.75921 1.98409 2.9155Z" fill="black"/>
<path fill-rule="evenodd" clip-rule="evenodd" d="M15.3306 11.1102C15.6301 11.1102 15.8384 10.8137 15.6989 10.5486C15.6038 10.368 15.4952 10.194 15.3737 10.0282C14.8934 9.37216 14.2324 8.8722 13.4724 8.59013C12.7125 8.30806 11.887 8.25626 11.0981 8.44114C10.3092 8.62602 9.5915 9.03946 9.0338 9.63031C8.77328 9.90633 8.55301 10.2154 8.37771 10.5482C8.23799 10.8134 8.44647 11.1102 8.74625 11.1102H8.83031C8.94949 11.1102 9.05659 11.04 9.11227 10.9346V10.9346C9.39439 10.4007 9.81564 9.95397 10.3309 9.64236C10.8461 9.33074 11.4359 9.16597 12.0372 9.16568C12.8002 9.16558 13.54 9.43023 14.1316 9.91497C14.4547 10.1797 14.7229 10.5013 14.9248 10.8611C15.0081 11.0095 15.1604 11.1102 15.3306 11.1102V11.1102Z" fill="black"/>
</svg>
