<svg width="21" height="17" viewBox="0 0 21 17" fill="none" xmlns="http://www.w3.org/2000/svg">
<path d="M5.25205 16.5479H2.45238C2.35956 16.5479 2.27055 16.511 2.20492 16.4454C2.13929 16.3798 2.10242 16.2908 2.10242 16.1979C2.10242 16.1051 2.13929 16.0161 2.20492 15.9505C2.27055 15.8848 2.35956 15.848 2.45238 15.848H5.25205C8.00438 15.848 10.6342 12.9499 12.7473 10.6212C13.701 9.57026 14.5246 8.66219 15.2068 8.20766C16.0382 7.64255 17.0203 7.34039 18.0256 7.34039C19.0309 7.34039 20.013 7.64255 20.8444 8.20766C20.9215 8.25918 20.9751 8.33922 20.9932 8.43019C21.0114 8.52116 20.9927 8.61562 20.9412 8.6928C20.8898 8.76999 20.8098 8.82359 20.7188 8.84182C20.6279 8.86005 20.5334 8.84142 20.4562 8.79003C19.7371 8.30824 18.8911 8.05101 18.0256 8.05101C17.16 8.05101 16.314 8.30824 15.595 8.79003C14.985 9.19672 14.1882 10.0747 13.2656 11.0914C11.0597 13.5223 8.3142 16.5479 5.25205 16.5479Z" fill="black"/>
<path d="M11.4601 12.8723C11.4439 12.8723 11.4276 12.8712 11.4116 12.8688C8.22056 12.4269 6.99077 11.2229 5.80125 10.0589C5.35195 9.59567 4.86629 9.16916 4.34892 8.78345C2.55265 7.5005 1.91747 8.03104 1.11333 8.70107C0.932468 8.85741 0.743334 9.00392 0.546749 9.13996C0.508523 9.16595 0.465526 9.18412 0.420241 9.1934C0.374955 9.20268 0.32828 9.2029 0.282909 9.19405C0.237538 9.18519 0.194372 9.16743 0.155903 9.1418C0.117434 9.11616 0.0844243 9.08316 0.058781 9.0447C0.0331378 9.00624 0.0153688 8.96308 0.00650038 8.91771C-0.00236803 8.87234 -0.00216017 8.82566 0.00711198 8.78038C0.0163841 8.73509 0.0345369 8.69209 0.0605217 8.65385C0.0865065 8.61562 0.119808 8.58291 0.158504 8.55762C0.334192 8.43533 0.503262 8.30379 0.665001 8.16357C1.49119 7.47461 2.51954 6.61713 4.7555 8.21414C5.3022 8.62078 5.81561 9.07036 6.29085 9.55861C7.45026 10.6936 8.54525 11.7654 11.5076 12.1758C11.5951 12.1882 11.6746 12.2333 11.7302 12.302C11.7858 12.3707 11.8134 12.4579 11.8074 12.5461C11.8014 12.6342 11.7622 12.7169 11.6978 12.7774C11.6334 12.8379 11.5485 12.8718 11.4601 12.8723Z" fill="black"/>
<path d="M15.8636 4.36359H13.8044C13.7725 3.82834 13.5613 3.34479 13.2262 2.96769L14.6821 1.51174C14.7343 1.45851 14.7343 1.37109 14.6821 1.31786C14.6289 1.26463 14.5415 1.26463 14.4883 1.31786L13.0323 2.7738C12.6552 2.43874 12.1715 2.22737 11.6364 2.19561V0.136414C11.6364 0.0606858 11.5756 0 11.5 0C11.4244 0 11.3636 0.0606858 11.3636 0.136414V2.19561C10.8283 2.2275 10.3448 2.43874 9.96769 2.7738L8.51174 1.31786C8.45851 1.26463 8.37109 1.26463 8.31786 1.31786C8.26566 1.37109 8.26566 1.45851 8.31786 1.51174L9.7738 2.96769C9.43874 3.34479 9.22737 3.82847 9.19561 4.36359H7.13641C7.06069 4.36359 7 4.4244 7 4.5C7 4.5756 7.06069 4.63641 7.13641 4.63641H9.19561C9.2275 5.17166 9.43874 5.65521 9.7738 6.03231L8.31786 7.48826C8.26566 7.54149 8.26566 7.62891 8.31786 7.68214C8.34447 7.70876 8.3797 7.72161 8.4148 7.72161C8.4499 7.72161 8.48513 7.70889 8.51174 7.68214L9.96769 6.2262C10.3448 6.56126 10.8285 6.77263 11.3636 6.80439V8.86359C11.3636 8.93932 11.4244 9 11.5 9C11.5756 9 11.6364 8.93932 11.6364 8.86359V6.80439C12.1717 6.7725 12.6552 6.56126 13.0323 6.2262L14.4883 7.68214C14.5149 7.70876 14.5501 7.72161 14.5852 7.72161C14.6203 7.72161 14.6555 7.70889 14.6821 7.68214C14.7343 7.62891 14.7343 7.54149 14.6821 7.48826L13.2262 6.03231C13.5613 5.65521 13.7726 5.17153 13.8044 4.63641H15.8636C15.9393 4.63641 16 4.5756 16 4.5C16 4.4244 15.9393 4.36359 15.8636 4.36359ZM13.0335 5.83959C12.9729 5.90876 12.9088 5.97291 12.8396 6.03347C12.5124 6.31954 12.0966 6.50057 11.6363 6.53169C11.5904 6.53477 11.5465 6.54544 11.4999 6.54544C11.4532 6.54544 11.4095 6.53477 11.3635 6.53169C10.9033 6.5007 10.4874 6.31967 10.1602 6.03347C10.091 5.97291 10.0268 5.90876 9.96627 5.83959C9.6802 5.51237 9.49917 5.09657 9.46806 4.63629C9.46497 4.59039 9.4543 4.54654 9.4543 4.49987C9.4543 4.4532 9.46497 4.40949 9.46806 4.36346C9.49904 3.9033 9.68007 3.48737 9.96627 3.16016C10.0268 3.09099 10.091 3.02683 10.1602 2.96627C10.4874 2.6802 10.9032 2.49917 11.3635 2.46806C11.4094 2.46497 11.4532 2.4543 11.4999 2.4543C11.5465 2.4543 11.5903 2.46497 11.6363 2.46806C12.0964 2.49904 12.5124 2.68007 12.8396 2.96627C12.9088 3.02683 12.9729 3.09099 13.0335 3.16016C13.3195 3.48737 13.5006 3.90317 13.5317 4.36346C13.5348 4.40936 13.5454 4.4532 13.5454 4.49987C13.5454 4.54654 13.5348 4.59026 13.5317 4.63629C13.5007 5.09657 13.3195 5.51237 13.0335 5.83959Z" fill="black"/>
</svg>
